{
  "accessors": [
    {
      "bufferView": 2,
      "componentType": 5126,
      "count": 1162,
      "max": [19.064306259155273, -5.73473596572876, 19.69794273376465],
      "min": [-19.356037139892578, -12.2839937210083, -2.4353866577148438],
      "type": "VEC3"
    },
    {
      "bufferView": 2,
      "byteOffset": 13944,
      "componentType": 5126,
      "count": 1162,
      "max": [1.0, 1.0, 1.0],
      "min": [-1.0, -1.0, -1.0],
      "type": "VEC3"
    },
    {
      "bufferView": 1,
      "componentType": 5126,
      "count": 1162,
      "max": [1.0, 1.1621131896972656],
      "min": [0.0, -0.0533440038561821],
      "type": "VEC2"
    },
    {
      "bufferView": 0,
      "componentType": 5125,
      "count": 2946,
      "type": "SCALAR"
    },
    {
      "bufferView": 2,
      "byteOffset": 27888,
      "componentType": 5126,
      "count": 40,
      "max": [18.692581176757813, -7.078791618347168, 19.28512954711914],
      "min": [-18.984760284423828, -9.125261306762695, 3.5776853561401367],
      "type": "VEC3"
    },
    {
      "bufferView": 2,
      "byteOffset": 28368,
      "componentType": 5126,
      "count": 40,
      "max": [0.23334373533725739, -0.9723942875862122, 4.557885040412657e-5],
      "min": [-0.2324981987476349, -0.9999353885650635, -4.621962216333486e-5],
      "type": "VEC3"
    },
    {
      "bufferView": 1,
      "byteOffset": 9296,
      "componentType": 5126,
      "count": 40,
      "max": [0.9976869225502014, 0.9962376952171326],
      "min": [0.0006438642740249634, 0.00226747989654541],
      "type": "VEC2"
    },
    {
      "bufferView": 0,
      "byteOffset": 11784,
      "componentType": 5125,
      "count": 114,
      "type": "SCALAR"
    }
  ],
  "asset": {
    "extras": {
      "author": "KI NG (https://sketchfab.com/dadybandit)",
      "license": "CC-BY-4.0 (http://creativecommons.org/licenses/by/4.0/)",
      "source": "https://sketchfab.com/3d-models/ultrawide-screen-046aeb9f891547f2bb96670b8ec7f83a",
      "title": "Ultrawide screen"
    },
    "generator": "Sketchfab-12.66.0",
    "version": "2.0"
  },
  "bufferViews": [
    {
      "buffer": 0,
      "byteLength": 12240,
      "name": "floatBufferViews",
      "target": 34963
    },
    {
      "buffer": 0,
      "byteLength": 9616,
      "byteOffset": 12240,
      "byteStride": 8,
      "name": "floatBufferViews",
      "target": 34962
    },
    {
      "buffer": 0,
      "byteLength": 28848,
      "byteOffset": 21856,
      "byteStride": 12,
      "name": "floatBufferViews",
      "target": 34962
    }
  ],
  "buffers": [
    {
      "byteLength": 50704,
      "uri": "scene.bin"
    }
  ],
  "extensionsUsed": ["KHR_materials_clearcoat"],
  "images": [
    {
      "uri": "textures/screen_baseColor.jpg"
    }
  ],
  "materials": [
    {
      "doubleSided": true,
      "name": "black",
      "pbrMetallicRoughness": {
        "baseColorFactor": [
          0.0027398010904408385, 0.0027398010904408385, 0.0027398010904408385,
          1.0
        ],
        "metallicFactor": 0.8616352201257862,
        "roughnessFactor": 0.2955974842767296
      }
    },
    {
      "doubleSided": true,
      "emissiveFactor": [1.0, 1.0, 1.0],
      "emissiveTexture": {
        "index": 0
      },
      "extensions": {
        "KHR_materials_clearcoat": {
          "clearcoatFactor": 1.0,
          "clearcoatRoughnessFactor": 0.1509433962264151
        }
      },
      "name": "screen",
      "pbrMetallicRoughness": {
        "baseColorTexture": {
          "index": 0
        },
        "metallicFactor": 0.0,
        "roughnessFactor": 0.0
      }
    }
  ],
  "meshes": [
    {
      "name": "Cube.001_black_0",
      "primitives": [
        {
          "attributes": {
            "NORMAL": 1,
            "POSITION": 0,
            "TEXCOORD_0": 2
          },
          "indices": 3,
          "material": 0,
          "mode": 4
        }
      ]
    },
    {
      "name": "Cube.001_screen_0",
      "primitives": [
        {
          "attributes": {
            "NORMAL": 5,
            "POSITION": 4,
            "TEXCOORD_0": 6
          },
          "indices": 7,
          "material": 1,
          "mode": 4
        }
      ]
    }
  ],
  "nodes": [
    {
      "children": [1],
      "matrix": [
        1.0, 0.0, 0.0, 0.0, 0.0, 2.220446049250313e-16, -1.0, 0.0, 0.0, 1.0,
        2.220446049250313e-16, 0.0, 0.0, 0.0, 0.0, 1.0
      ],
      "name": "Sketchfab_model"
    },
    {
      "children": [2],
      "matrix": [
        1.0, 0.0, 0.0, 0.0, 0.0, 0.0, 1.0, 0.0, 0.0, -1.0, 0.0, 0.0, 0.0, 0.0,
        0.0, 1.0
      ],
      "name": "d69b8709385d4cbbacb0af869f56670d.fbx"
    },
    {
      "children": [3],
      "name": "RootNode"
    },
    {
      "children": [4, 5],
      "matrix": [
        12.810534477233887, 0.0, 0.0, 0.0, 0.0, -2.0871009804034245e-6,
        -12.810534477233718, 0.0, 0.0, 12.810534477233718,
        -2.0871009804034245e-6, 0.0, 0.5274020433425903, -32.303367614746094,
        -4.340242867328925e-6, 1.0
      ],
      "name": "Cube.001"
    },
    {
      "mesh": 0,
      "name": "Cube.001_black_0"
    },
    {
      "mesh": 1,
      "name": "Cube.001_screen_0"
    }
  ],
  "samplers": [
    {
      "magFilter": 9728,
      "minFilter": 9728,
      "wrapS": 10497,
      "wrapT": 10497
    }
  ],
  "scene": 0,
  "scenes": [
    {
      "name": "Sketchfab_Scene",
      "nodes": [0]
    }
  ],
  "textures": [
    {
      "sampler": 0,
      "source": 0
    }
  ]
}
