{
  "accessors": [
    {
      "bufferView": 2,
      "componentType": 5126,
      "count": 8,
      "max": [0.3652968108654022, 0.073611319065094, 0.5],
      "min": [-0.3652968108654022, 0.0736113116145134, -0.5],
      "type": "VEC3"
    },
    {
      "bufferView": 2,
      "byteOffset": 96,
      "componentType": 5126,
      "count": 8,
      "max": [0.2710735499858856, 0.9741681218147278, 0.20899446308612823],
      "min": [-0.2710735499858856, 0.9614840149879456, -0.20899446308612823],
      "type": "VEC3"
    },
    {
      "bufferView": 1,
      "componentType": 5126,
      "count": 8,
      "max": [1.0, 1.0],
      "min": [0.0, 0.0],
      "type": "VEC2"
    },
    {
      "bufferView": 0,
      "componentType": 5125,
      "count": 18,
      "type": "SCALAR"
    },
    {
      "bufferView": 2,
      "byteOffset": 192,
      "componentType": 5126,
      "count": 121,
      "max": [0.5625682473182678, 0.1189560666680336, 0.7700152397155762],
      "min": [-0.5625682473182678, -0.04592636972665787, -0.7700152397155762],
      "type": "VEC3"
    },
    {
      "bufferView": 2,
      "byteOffset": 1644,
      "componentType": 5126,
      "count": 121,
      "max": [1.0, 0.9970734119415283, 1.0],
      "min": [-1.0, -1.0, -1.0],
      "type": "VEC3"
    },
    {
      "bufferView": 1,
      "byteOffset": 64,
      "componentType": 5126,
      "count": 121,
      "max": [1.0028585195541382, 1.0028239488601685],
      "min": [-0.0028584711253643036, -0.002824020106345415],
      "type": "VEC2"
    },
    {
      "bufferView": 0,
      "byteOffset": 72,
      "componentType": 5125,
      "count": 240,
      "type": "SCALAR"
    },
    {
      "bufferView": 2,
      "byteOffset": 3096,
      "componentType": 5126,
      "count": 59,
      "max": [0.5616242289543152, 0.1189560666680336, 0.7687231302261353],
      "min": [-0.5616242289543152, 0.09346581995487213, -0.7687231302261353],
      "type": "VEC3"
    },
    {
      "bufferView": 2,
      "byteOffset": 3804,
      "componentType": 5126,
      "count": 59,
      "max": [0.5159896016120911, 0.9970734119415283, 0.43019720911979675],
      "min": [-0.5159896016120911, 0.8547842502593994, -0.43019720911979675],
      "type": "VEC3"
    },
    {
      "bufferView": 1,
      "byteOffset": 1032,
      "componentType": 5126,
      "count": 59,
      "max": [1.0, 1.0],
      "min": [0.0, 0.0],
      "type": "VEC2"
    },
    {
      "bufferView": 0,
      "byteOffset": 1032,
      "componentType": 5125,
      "count": 96,
      "type": "SCALAR"
    },
    {
      "bufferView": 2,
      "byteOffset": 4512,
      "componentType": 5126,
      "count": 65534,
      "max": [115.6600570678711, 0.9807852506637573, 1.09956955909729],
      "min": [-2.59145450592041, -157.97695922851563, -1.0],
      "type": "VEC3"
    },
    {
      "bufferView": 2,
      "byteOffset": 790920,
      "componentType": 5126,
      "count": 65534,
      "max": [0.995138943195343, 0.956551194190979, 0.9904384613037109],
      "min": [-0.9904388785362244, -0.95655757188797, -0.9904385209083557],
      "type": "VEC3"
    },
    {
      "bufferView": 1,
      "byteOffset": 1504,
      "componentType": 5126,
      "count": 65534,
      "max": [1.000000238418579, 0.9375001192092896],
      "min": [0.0, 0.0],
      "type": "VEC2"
    },
    {
      "bufferView": 0,
      "byteOffset": 1416,
      "componentType": 5125,
      "count": 98508,
      "type": "SCALAR"
    },
    {
      "bufferView": 2,
      "byteOffset": 1577328,
      "componentType": 5126,
      "count": 65534,
      "max": [115.32838439941406, 0.9807852506637573, 1.5116316080093384],
      "min": [-0.9999998211860657, -83.49520111083984, -1.0],
      "type": "VEC3"
    },
    {
      "bufferView": 2,
      "byteOffset": 2363736,
      "componentType": 5126,
      "count": 65534,
      "max": [0.9951411485671997, 0.990440845489502, 0.9904385209083557],
      "min": [-0.9904384016990662, -0.990440845489502, -0.9904386401176453],
      "type": "VEC3"
    },
    {
      "bufferView": 1,
      "byteOffset": 525776,
      "componentType": 5126,
      "count": 65534,
      "max": [1.000000238418579, 0.9375001192092896],
      "min": [0.0, 0.0],
      "type": "VEC2"
    },
    {
      "bufferView": 0,
      "byteOffset": 395448,
      "componentType": 5125,
      "count": 98298,
      "type": "SCALAR"
    },
    {
      "bufferView": 2,
      "byteOffset": 3150144,
      "componentType": 5126,
      "count": 65534,
      "max": [115.30916595458984, -6.720947265625, 1.5116251707077026],
      "min": [-4.403709411621094, -103.81587219238281, -1.2670131921768188],
      "type": "VEC3"
    },
    {
      "bufferView": 2,
      "byteOffset": 3936552,
      "componentType": 5126,
      "count": 65534,
      "max": [0.9565593600273132, 0.990440845489502, 0.9904385805130005],
      "min": [-0.9565593600273132, -0.990440845489502, -0.9904386401176453],
      "type": "VEC3"
    },
    {
      "bufferView": 1,
      "byteOffset": 1050048,
      "componentType": 5126,
      "count": 65534,
      "max": [1.000000238418579, 0.9375001192092896],
      "min": [0.0, 0.06249988079071045],
      "type": "VEC2"
    },
    {
      "bufferView": 0,
      "byteOffset": 788640,
      "componentType": 5125,
      "count": 98298,
      "type": "SCALAR"
    },
    {
      "bufferView": 2,
      "byteOffset": 4722960,
      "componentType": 5126,
      "count": 65533,
      "max": [115.32838439941406, 1.0, 0.9750155210494995],
      "min": [-4.422924041748047, -158.97695922851563, -1.2670173645019531],
      "type": "VEC3"
    },
    {
      "bufferView": 2,
      "byteOffset": 5509356,
      "componentType": 5126,
      "count": 65533,
      "max": [0.9951390624046326, 0.9951406717300415, 0.9904385805130005],
      "min": [-0.9951388835906982, -0.9951406121253967, -0.9904385805130005],
      "type": "VEC3"
    },
    {
      "bufferView": 1,
      "byteOffset": 1574320,
      "componentType": 5126,
      "count": 65533,
      "max": [1.000000238418579, 1.0],
      "min": [0.0, 0.0],
      "type": "VEC2"
    },
    {
      "bufferView": 0,
      "byteOffset": 1181832,
      "componentType": 5125,
      "count": 78939,
      "type": "SCALAR"
    },
    {
      "bufferView": 2,
      "byteOffset": 6295752,
      "componentType": 5126,
      "count": 65534,
      "max": [75.86602783203125, -0.80584716796875, 1.000000238418579],
      "min": [-4.403709411621094, -158.95774841308594, -1.267014503479004],
      "type": "VEC3"
    },
    {
      "bufferView": 2,
      "byteOffset": 7082160,
      "componentType": 5126,
      "count": 65534,
      "max": [0.9904404878616333, 0.990440845489502, 0.9904385805130005],
      "min": [-0.9904404878616333, -0.990440845489502, -0.9904385805130005],
      "type": "VEC3"
    },
    {
      "bufferView": 1,
      "byteOffset": 2098584,
      "componentType": 5126,
      "count": 65534,
      "max": [1.000000238418579, 0.9375001192092896],
      "min": [0.0, 0.06249988079071045],
      "type": "VEC2"
    },
    {
      "bufferView": 0,
      "byteOffset": 1497588,
      "componentType": 5125,
      "count": 98298,
      "type": "SCALAR"
    },
    {
      "bufferView": 2,
      "byteOffset": 7868568,
      "componentType": 5126,
      "count": 65534,
      "max": [115.30916595458984, -97.87521362304688, 1.5116240978240967],
      "min": [73.88523864746094, -158.95774841308594, -0.9999999403953552],
      "type": "VEC3"
    },
    {
      "bufferView": 2,
      "byteOffset": 8654976,
      "componentType": 5126,
      "count": 65534,
      "max": [0.9904404878616333, 0.990440845489502, 0.9904385209083557],
      "min": [-0.9904404878616333, -0.990440845489502, -0.9904386401176453],
      "type": "VEC3"
    },
    {
      "bufferView": 1,
      "byteOffset": 2622856,
      "componentType": 5126,
      "count": 65534,
      "max": [1.000000238418579, 0.9375001192092896],
      "min": [0.0, 0.06249988079071045],
      "type": "VEC2"
    },
    {
      "bufferView": 0,
      "byteOffset": 1890780,
      "componentType": 5125,
      "count": 98298,
      "type": "SCALAR"
    },
    {
      "bufferView": 2,
      "byteOffset": 9441384,
      "componentType": 5126,
      "count": 6755,
      "max": [115.30916595458984, -86.95520782470703, 1.5116249322891235],
      "min": [113.34760284423828, -99.85599517822266, -0.48837602138519287],
      "type": "VEC3"
    },
    {
      "bufferView": 2,
      "byteOffset": 9522444,
      "componentType": 5126,
      "count": 6755,
      "max": [0.9565593600273132, 0.9904371500015259, 0.9904385209083557],
      "min": [-0.9565593600273132, -0.990440845489502, -0.9904386401176453],
      "type": "VEC3"
    },
    {
      "bufferView": 1,
      "byteOffset": 3147128,
      "componentType": 5126,
      "count": 6755,
      "max": [1.000000238418579, 0.9375001192092896],
      "min": [0.0, 0.06249988079071045],
      "type": "VEC2"
    },
    {
      "bufferView": 0,
      "byteOffset": 2283972,
      "componentType": 5125,
      "count": 10131,
      "type": "SCALAR"
    }
  ],
  "asset": {
    "extras": {
      "author": "Johana-PS (https://sketchfab.com/Johana-PS)",
      "license": "CC-BY-4.0 (http://creativecommons.org/licenses/by/4.0/)",
      "source": "https://sketchfab.com/3d-models/white-photo-frame-2b72fcdffd7c445fa68573b2a2c5b940",
      "title": "White Photo Frame"
    },
    "generator": "Sketchfab-12.65.0",
    "version": "2.0"
  },
  "bufferViews": [
    {
      "buffer": 0,
      "byteLength": 2324496,
      "name": "floatBufferViews",
      "target": 34963
    },
    {
      "buffer": 0,
      "byteLength": 3201168,
      "byteOffset": 2324496,
      "byteStride": 8,
      "name": "floatBufferViews",
      "target": 34962
    },
    {
      "buffer": 0,
      "byteLength": 9603504,
      "byteOffset": 5525664,
      "byteStride": 12,
      "name": "floatBufferViews",
      "target": 34962
    }
  ],
  "buffers": [
    {
      "byteLength": 15129168,
      "uri": "scene.bin"
    }
  ],
  "images": [
    {
      "uri": "textures/mockofun-vintage-photo-editor_baseColor.jpeg"
    }
  ],
  "materials": [
    {
      "doubleSided": true,
      "name": "material_0",
      "pbrMetallicRoughness": {
        "metallicFactor": 0.0,
        "roughnessFactor": 0.6
      }
    },
    {
      "doubleSided": true,
      "name": "mockofun-vintage-photo-editor",
      "pbrMetallicRoughness": {
        "baseColorTexture": {
          "index": 0
        },
        "metallicFactor": 0.0,
        "roughnessFactor": 0.0490909
      }
    },
    {
      "doubleSided": true,
      "name": "frame",
      "pbrMetallicRoughness": {
        "baseColorFactor": [0.8, 0.8, 0.8, 1.0],
        "metallicFactor": 0.0
      }
    },
    {
      "doubleSided": true,
      "name": "frame-darker",
      "pbrMetallicRoughness": {
        "baseColorFactor": [0.652861, 0.652861, 0.652861, 1.0],
        "metallicFactor": 0.0,
        "roughnessFactor": 0.5
      }
    }
  ],
  "meshes": [
    {
      "name": "Object_0",
      "primitives": [
        {
          "attributes": {
            "NORMAL": 1,
            "POSITION": 0,
            "TEXCOORD_0": 2
          },
          "indices": 3,
          "material": 1,
          "mode": 4
        }
      ]
    },
    {
      "name": "Object_1",
      "primitives": [
        {
          "attributes": {
            "NORMAL": 5,
            "POSITION": 4,
            "TEXCOORD_0": 6
          },
          "indices": 7,
          "material": 2,
          "mode": 4
        }
      ]
    },
    {
      "name": "Object_2",
      "primitives": [
        {
          "attributes": {
            "NORMAL": 9,
            "POSITION": 8,
            "TEXCOORD_0": 10
          },
          "indices": 11,
          "material": 3,
          "mode": 4
        }
      ]
    },
    {
      "name": "Object_3",
      "primitives": [
        {
          "attributes": {
            "NORMAL": 13,
            "POSITION": 12,
            "TEXCOORD_0": 14
          },
          "indices": 15,
          "material": 0,
          "mode": 4
        }
      ]
    },
    {
      "name": "Object_4",
      "primitives": [
        {
          "attributes": {
            "NORMAL": 17,
            "POSITION": 16,
            "TEXCOORD_0": 18
          },
          "indices": 19,
          "material": 0,
          "mode": 4
        }
      ]
    },
    {
      "name": "Object_5",
      "primitives": [
        {
          "attributes": {
            "NORMAL": 21,
            "POSITION": 20,
            "TEXCOORD_0": 22
          },
          "indices": 23,
          "material": 0,
          "mode": 4
        }
      ]
    },
    {
      "name": "Object_6",
      "primitives": [
        {
          "attributes": {
            "NORMAL": 25,
            "POSITION": 24,
            "TEXCOORD_0": 26
          },
          "indices": 27,
          "material": 0,
          "mode": 4
        }
      ]
    },
    {
      "name": "Object_7",
      "primitives": [
        {
          "attributes": {
            "NORMAL": 29,
            "POSITION": 28,
            "TEXCOORD_0": 30
          },
          "indices": 31,
          "material": 0,
          "mode": 4
        }
      ]
    },
    {
      "name": "Object_8",
      "primitives": [
        {
          "attributes": {
            "NORMAL": 33,
            "POSITION": 32,
            "TEXCOORD_0": 34
          },
          "indices": 35,
          "material": 0,
          "mode": 4
        }
      ]
    },
    {
      "name": "Object_9",
      "primitives": [
        {
          "attributes": {
            "NORMAL": 37,
            "POSITION": 36,
            "TEXCOORD_0": 38
          },
          "indices": 39,
          "material": 0,
          "mode": 4
        }
      ]
    }
  ],
  "nodes": [
    {
      "children": [1],
      "matrix": [
        1.0, 0.0, 0.0, 0.0, 0.0, 2.220446049250313e-16, -1.0, 0.0, 0.0, 1.0,
        2.220446049250313e-16, 0.0, 0.0, 0.0, 0.0, 1.0
      ],
      "name": "Sketchfab_model"
    },
    {
      "children": [2],
      "name": "root"
    },
    {
      "children": [3, 7],
      "matrix": [
        1.0, 0.0, 0.0, 0.0, 0.0, 2.220446049250313e-16, 1.0, 0.0, 0.0, -1.0,
        2.220446049250313e-16, 0.0, 0.0, 0.0, 0.0, 1.0
      ],
      "name": "GLTF_SceneRootNode"
    },
    {
      "children": [4, 5, 6],
      "matrix": [
        -2.9802322387695313e-8, 2.980232327587373e-8, -0.9999999999999991, 0.0,
        0.9999999999999991, -2.9802322387695313e-8, -2.980232327587373e-8, 0.0,
        -2.980232327587373e-8, -0.9999999999999991, -2.9802322387695313e-8, 0.0,
        0.0, 0.0, 0.0, 1.0
      ],
      "name": "mockofun-vintage-photo-editor_2"
    },
    {
      "mesh": 0,
      "name": "Object_4"
    },
    {
      "mesh": 1,
      "name": "Object_5"
    },
    {
      "mesh": 2,
      "name": "Object_6"
    },
    {
      "children": [8, 9, 10, 11, 12, 13, 14],
      "matrix": [
        -0.0, 0.0, 0.006804087199270725, -0.0, -0.0, -0.006804087199270725, 0.0,
        -0.0, -0.006804087199270725, 0.0, 0.0, -0.0, 0.09972164779901505,
        -0.5358263254165649, -0.37466856837272644, 1.0
      ],
      "name": "Sphere.001_3"
    },
    {
      "mesh": 3,
      "name": "Object_8"
    },
    {
      "mesh": 4,
      "name": "Object_9"
    },
    {
      "mesh": 5,
      "name": "Object_10"
    },
    {
      "mesh": 6,
      "name": "Object_11"
    },
    {
      "mesh": 7,
      "name": "Object_12"
    },
    {
      "mesh": 8,
      "name": "Object_13"
    },
    {
      "mesh": 9,
      "name": "Object_14"
    }
  ],
  "samplers": [
    {
      "magFilter": 9729,
      "minFilter": 9987,
      "wrapS": 10497,
      "wrapT": 10497
    }
  ],
  "scene": 0,
  "scenes": [
    {
      "name": "Sketchfab_Scene",
      "nodes": [0]
    }
  ],
  "textures": [
    {
      "sampler": 0,
      "source": 0
    }
  ]
}
