{
  "accessors": [
    {
      "bufferView": 2,
      "componentType": 5126,
      "count": 21165,
      "max": [26.496000289916992, 11.595999717712402, 98.61299896240234],
      "min": [-25.996999740600586, -9.972000122070313, -198.21299743652344],
      "type": "VEC3"
    },
    {
      "bufferView": 2,
      "byteOffset": 253980,
      "componentType": 5126,
      "count": 21165,
      "max": [1.0, 1.0, 1.0],
      "min": [-1.0, -1.0, -1.0],
      "type": "VEC3"
    },
    {
      "bufferView": 1,
      "componentType": 5126,
      "count": 21165,
      "max": [0.9904999732971191, 0.9983999729156494],
      "min": [0.004000000189989805, 0.004100000020116568],
      "type": "VEC2"
    },
    {
      "bufferView": 0,
      "componentType": 5125,
      "count": 76704,
      "type": "SCALAR"
    }
  ],
  "asset": {
    "extras": {
      "author": "SunnyChen753/SW fan (https://sketchfab.com/sunnychen753)",
      "license": "CC-BY-4.0 (http://creativecommons.org/licenses/by/4.0/)",
      "source": "https://sketchfab.com/3d-models/spacex-falcon-heavy-2f11453207944cedba00e2c6c1aa1269",
      "title": "SpaceX Falcon Heavy"
    },
    "generator": "Sketchfab-12.67.0",
    "version": "2.0"
  },
  "bufferViews": [
    {
      "buffer": 0,
      "byteLength": 306816,
      "name": "floatBufferViews",
      "target": 34963
    },
    {
      "buffer": 0,
      "byteLength": 169320,
      "byteOffset": 306816,
      "byteStride": 8,
      "name": "floatBufferViews",
      "target": 34962
    },
    {
      "buffer": 0,
      "byteLength": 507960,
      "byteOffset": 476136,
      "byteStride": 12,
      "name": "floatBufferViews",
      "target": 34962
    }
  ],
  "buffers": [
    {
      "byteLength": 984096,
      "uri": "scene.bin"
    }
  ],
  "images": [
    {
      "uri": "textures/falcon_heavy_texture_bf32b81e-0ee7-4847-b2fd-4bccbc96dcaf_baseColor.jpeg"
    }
  ],
  "materials": [
    {
      "doubleSided": true,
      "name": "falcon_heavy_texture_bf32b81e-0ee7-4847-b2fd-4bccbc96dcaf",
      "pbrMetallicRoughness": {
        "baseColorTexture": {
          "index": 0
        },
        "metallicFactor": 0.0
      }
    }
  ],
  "meshes": [
    {
      "name": "Object_0",
      "primitives": [
        {
          "attributes": {
            "NORMAL": 1,
            "POSITION": 0,
            "TEXCOORD_0": 2
          },
          "indices": 3,
          "material": 0,
          "mode": 4
        }
      ]
    }
  ],
  "nodes": [
    {
      "children": [1],
      "matrix": [
        1.0, 0.0, 0.0, 0.0, 0.0, 2.220446049250313e-16, -1.0, 0.0, 0.0, 1.0,
        2.220446049250313e-16, 0.0, 0.0, 0.0, 0.0, 1.0
      ],
      "name": "Sketchfab_model"
    },
    {
      "children": [2],
      "name": "SpaceX Falcon Heavy.obj.cleaner.materialmerger.gles"
    },
    {
      "mesh": 0,
      "name": "Object_2"
    }
  ],
  "samplers": [
    {
      "magFilter": 9729,
      "minFilter": 9987,
      "wrapS": 10497,
      "wrapT": 10497
    }
  ],
  "scene": 0,
  "scenes": [
    {
      "name": "Sketchfab_Scene",
      "nodes": [0]
    }
  ],
  "textures": [
    {
      "sampler": 0,
      "source": 0
    }
  ]
}
