{
  "accessors": [
    {
      "bufferView": 2,
      "componentType": 5126,
      "count": 103,
      "max": [
        0.17983999848365784,
        0.4069199860095978,
        0.5461500287055969
      ],
      "min": [
        -0.14846999943256378,
        -0.4069199860095978,
        -0.5383099913597107
      ],
      "type": "VEC3"
    },
    {
      "bufferView": 2,
      "byteOffset": 1236,
      "componentType": 5126,
      "count": 103,
      "max": [
        0.9705915451049805,
        1.0,
        0.9705889821052551
      ],
      "min": [
        -0.970587432384491,
        -1.0,
        -0.9706329107284546
      ],
      "type": "VEC3"
    },
    {
      "bufferView": 1,
      "componentType": 5126,
      "count": 103,
      "max": [
        1.0,
        1.0
      ],
      "min": [
        0.0,
        0.0
      ],
      "type": "VEC2"
    },
    {
      "bufferView": 0,
      "componentType": 5125,
      "count": 156,
      "type": "SCALAR"
    },
    {
      "bufferView": 2,
      "byteOffset": 2472,
      "componentType": 5126,
      "count": 2919,
      "max": [
        0.018360000103712082,
        0.051339998841285706,
        0.043219998478889465
      ],
      "min": [
        -0.018360000103712082,
        -0.051339998841285706,
        -0.043219998478889465
      ],
      "type": "VEC3"
    },
    {
      "bufferView": 2,
      "byteOffset": 37500,
      "componentType": 5126,
      "count": 2919,
      "max": [
        0.9889935255050659,
        0.7790082097053528,
        0.7888368964195251
      ],
      "min": [
        -0.9889935255050659,
        -0.7790270447731018,
        -0.7888368964195251
      ],
      "type": "VEC3"
    },
    {
      "bufferView": 1,
      "byteOffset": 824,
      "componentType": 5126,
      "count": 2919,
      "max": [
        1.0,
        1.0
      ],
      "min": [
        0.0,
        0.0
      ],
      "type": "VEC2"
    },
    {
      "bufferView": 0,
      "byteOffset": 624,
      "componentType": 5125,
      "count": 6360,
      "type": "SCALAR"
    },
    {
      "bufferView": 2,
      "byteOffset": 72528,
      "componentType": 5126,
      "count": 188,
      "max": [
        0.08574000000953674,
        0.39180999994277954,
        0.1937599927186966
      ],
      "min": [
        -0.25505000352859497,
        -0.16279000043869019,
        -0.49720001220703125
      ],
      "type": "VEC3"
    },
    {
      "bufferView": 2,
      "byteOffset": 74784,
      "componentType": 5126,
      "count": 188,
      "max": [
        0.9244157075881958,
        0.8516028523445129,
        0.7547082901000977
      ],
      "min": [
        -0.9280728697776794,
        -0.8159122467041016,
        -0.9734719395637512
      ],
      "type": "VEC3"
    },
    {
      "bufferView": 1,
      "byteOffset": 24176,
      "componentType": 5126,
      "count": 188,
      "max": [
        1.0,
        1.0
      ],
      "min": [
        0.0,
        0.0
      ],
      "type": "VEC2"
    },
    {
      "bufferView": 0,
      "byteOffset": 26064,
      "componentType": 5125,
      "count": 504,
      "type": "SCALAR"
    },
    {
      "bufferView": 2,
      "byteOffset": 77040,
      "componentType": 5126,
      "count": 4,
      "max": [
        0.10982999950647354,
        0.31077998876571655,
        0.4372600018978119
      ],
      "min": [
        -0.10982999950647354,
        -0.31077998876571655,
        -0.4372600018978119
      ],
      "type": "VEC3"
    },
    {
      "bufferView": 2,
      "byteOffset": 77088,
      "componentType": 5126,
      "count": 4,
      "max": [
        0.9698708057403564,
        0.0,
        0.24362020194530487
      ],
      "min": [
        0.9698708057403564,
        0.0,
        0.24362020194530487
      ],
      "type": "VEC3"
    },
    {
      "bufferView": 1,
      "byteOffset": 25680,
      "componentType": 5126,
      "count": 4,
      "max": [
        1.0,
        1.0
      ],
      "min": [
        0.0,
        0.0
      ],
      "type": "VEC2"
    },
    {
      "bufferView": 0,
      "byteOffset": 28080,
      "componentType": 5125,
      "count": 6,
      "type": "SCALAR"
    }
  ],
  "asset": {
    "extras": {
      "author": "Livia Chandra (https://sketchfab.com/VeritasCH)",
      "license": "CC-BY-4.0 (http://creativecommons.org/licenses/by/4.0/)",
      "source": "https://sketchfab.com/3d-models/photo-frame-of-dog-43ae709575004f36b6f622c5a439c998",
      "title": "Photo Frame of Dog"
    },
    "generator": "Sketchfab-12.63.0",
    "version": "2.0"
  },
  "bufferViews": [
    {
      "buffer": 0,
      "byteLength": 28104,
      "name": "floatBufferViews",
      "target": 34963
    },
    {
      "buffer": 0,
      "byteLength": 25712,
      "byteOffset": 28104,
      "byteStride": 8,
      "name": "floatBufferViews",
      "target": 34962
    },
    {
      "buffer": 0,
      "byteLength": 77136,
      "byteOffset": 53816,
      "byteStride": 12,
      "name": "floatBufferViews",
      "target": 34962
    }
  ],
  "buffers": [
    {
      "byteLength": 130952,
      "uri": "scene.bin"
    }
  ],
  "images": [
    {
      "uri": "textures/Material.002_baseColor.jpeg"
    },
    {
      "uri": "textures/Material.001_baseColor.jpeg"
    },
    {
      "uri": "textures/Material.003_baseColor.jpeg"
    }
  ],
  "materials": [
    {
      "doubleSided": true,
      "name": "Material.002",
      "pbrMetallicRoughness": {
        "baseColorTexture": {
          "index": 0
        },
        "metallicFactor": 0.0,
        "roughnessFactor": 0.6
      }
    },
    {
      "doubleSided": true,
      "name": "Material.001",
      "pbrMetallicRoughness": {
        "baseColorTexture": {
          "index": 1
        },
        "metallicFactor": 0.0,
        "roughnessFactor": 0.6
      }
    },
    {
      "doubleSided": true,
      "name": "Material.003",
      "pbrMetallicRoughness": {
        "baseColorTexture": {
          "index": 2
        },
        "metallicFactor": 0.0,
        "roughnessFactor": 0.6
      }
    },
    {
      "doubleSided": true,
      "name": "Material",
      "pbrMetallicRoughness": {
        "baseColorTexture": {
          "index": 1
        },
        "metallicFactor": 0.0,
        "roughnessFactor": 0.6
      }
    }
  ],
  "meshes": [
    {
      "name": "Cube_0",
      "primitives": [
        {
          "attributes": {
            "NORMAL": 1,
            "POSITION": 0,
            "TEXCOORD_0": 2
          },
          "indices": 3,
          "material": 3,
          "mode": 4
        }
      ]
    },
    {
      "name": "Cylinder_0",
      "primitives": [
        {
          "attributes": {
            "NORMAL": 5,
            "POSITION": 4,
            "TEXCOORD_0": 6
          },
          "indices": 7,
          "material": 2,
          "mode": 4
        }
      ]
    },
    {
      "name": "Plane_0",
      "primitives": [
        {
          "attributes": {
            "NORMAL": 9,
            "POSITION": 8,
            "TEXCOORD_0": 10
          },
          "indices": 11,
          "material": 1,
          "mode": 4
        }
      ]
    },
    {
      "name": "Plane.001_0",
      "primitives": [
        {
          "attributes": {
            "NORMAL": 13,
            "POSITION": 12,
            "TEXCOORD_0": 14
          },
          "indices": 15,
          "material": 0,
          "mode": 4
        }
      ]
    }
  ],
  "nodes": [
    {
      "children": [
        1
      ],
      "matrix": [
        1.0,
        0.0,
        0.0,
        0.0,
        0.0,
        2.220446049250313e-16,
        -1.0,
        0.0,
        0.0,
        1.0,
        2.220446049250313e-16,
        0.0,
        0.0,
        0.0,
        0.0,
        1.0
      ],
      "name": "Sketchfab_model"
    },
    {
      "children": [
        2,
        4,
        6,
        8,
        10
      ],
      "name": "Root"
    },
    {
      "children": [
        3
      ],
      "matrix": [
        -0.29086000000000006,
        0.9551700000000001,
        -0.05519000000000001,
        0.0,
        -0.7711,
        -0.19988000000000003,
        0.6045200000000001,
        0.0,
        0.5663900000000001,
        0.21839000000000003,
        0.7946700000000001,
        0.0,
        1.0013599999999998,
        1.00545,
        1.5472899999999998,
        1.0
      ],
      "name": "Lamp"
    },
    {
      "name": "Lamp"
    },
    {
      "children": [
        5
      ],
      "matrix": [
        1.0,
        0.0,
        0.0,
        0.0,
        0.0,
        1.0,
        0.0,
        0.0,
        0.0,
        0.0,
        1.0,
        0.0,
        0.0,
        0.0,
        0.5737700000000001,
        1.0
      ],
      "name": "Cube"
    },
    {
      "mesh": 0,
      "name": "Cube_0"
    },
    {
      "children": [
        7
      ],
      "matrix": [
        1.0,
        0.0,
        0.0,
        0.0,
        0.0,
        1.0,
        0.0,
        0.0,
        0.0,
        0.0,
        1.0,
        0.0,
        -0.05108000000000001,
        -0.08366000000000003,
        0.6730800000000001,
        1.0
      ],
      "name": "Cylinder"
    },
    {
      "mesh": 1,
      "name": "Cylinder_0"
    },
    {
      "children": [
        9
      ],
      "matrix": [
        1.0,
        0.0,
        0.0,
        0.0,
        0.0,
        1.0,
        0.0,
        0.0,
        0.0,
        0.0,
        1.0,
        0.0,
        -0.12542,
        0.020340000000000004,
        0.52073,
        1.0
      ],
      "name": "Plane"
    },
    {
      "mesh": 2,
      "name": "Plane_0"
    },
    {
      "children": [
        11
      ],
      "matrix": [
        1.0,
        0.0,
        0.0003200000000000001,
        0.0,
        0.0,
        1.0,
        0.0,
        0.0,
        -0.0003200000000000001,
        0.0,
        1.0,
        0.0,
        0.019880000000000002,
        -0.0008500000000000003,
        0.57532,
        1.0
      ],
      "name": "Plane.001"
    },
    {
      "mesh": 3,
      "name": "Plane.001_0"
    }
  ],
  "samplers": [
    {
      "magFilter": 9729,
      "minFilter": 9987,
      "wrapS": 10497,
      "wrapT": 10497
    }
  ],
  "scene": 0,
  "scenes": [
    {
      "name": "Sketchfab_Scene",
      "nodes": [
        0
      ]
    }
  ],
  "textures": [
    {
      "sampler": 0,
      "source": 0
    },
    {
      "sampler": 0,
      "source": 1
    },
    {
      "sampler": 0,
      "source": 2
    }
  ]
}
