{
  "accessors": [
    {
      "bufferView": 2,
      "componentType": 5126,
      "count": 1380,
      "max": [0.016635097563266754, 0.2796124815940857, 0.22373563051223755],
      "min": [
        -0.05858226120471954, -0.037454500794410706, -0.16076306998729706
      ],
      "type": "VEC3"
    },
    {
      "bufferView": 2,
      "byteOffset": 16560,
      "componentType": 5126,
      "count": 1380,
      "max": [1.0, 1.0, 1.0],
      "min": [-1.0, -1.0, -1.0],
      "type": "VEC3"
    },
    {
      "bufferView": 3,
      "componentType": 5126,
      "count": 1380,
      "max": [1.0, 0.9999952912330627, 1.0, 1.0],
      "min": [-1.0, -1.0, -1.0, -1.0],
      "type": "VEC4"
    },
    {
      "bufferView": 1,
      "componentType": 5126,
      "count": 1380,
      "max": [0.9844970703125, 0.9937744140625],
      "min": [0.012884686700999737, 0.012884686700999737],
      "type": "VEC2"
    },
    {
      "bufferView": 1,
      "byteOffset": 11040,
      "componentType": 5126,
      "count": 1380,
      "max": [0.9844970703125, 0.9937744140625],
      "min": [0.012884686700999737, 0.012884686700999737],
      "type": "VEC2"
    },
    {
      "bufferView": 1,
      "byteOffset": 22080,
      "componentType": 5126,
      "count": 1380,
      "max": [0.9844970703125, 0.9937744140625],
      "min": [0.012884686700999737, 0.012884686700999737],
      "type": "VEC2"
    },
    {
      "bufferView": 0,
      "componentType": 5125,
      "count": 3075,
      "type": "SCALAR"
    },
    {
      "bufferView": 2,
      "byteOffset": 33120,
      "componentType": 5126,
      "count": 1380,
      "max": [0.016635097563266754, 0.2796124815940857, 0.22373563051223755],
      "min": [
        -0.05858226120471954, -0.037454500794410706, -0.16076306998729706
      ],
      "type": "VEC3"
    },
    {
      "bufferView": 2,
      "byteOffset": 49680,
      "componentType": 5126,
      "count": 1380,
      "max": [1.0, 1.0, 1.0],
      "min": [-1.0, -1.0, -1.0],
      "type": "VEC3"
    },
    {
      "bufferView": 3,
      "byteOffset": 22080,
      "componentType": 5126,
      "count": 1380,
      "max": [1.0, 0.9999952912330627, 1.0, 1.0],
      "min": [-1.0, -1.0, -1.0, -1.0],
      "type": "VEC4"
    },
    {
      "bufferView": 1,
      "byteOffset": 33120,
      "componentType": 5126,
      "count": 1380,
      "max": [0.9844970703125, 0.9937744140625],
      "min": [0.012884686700999737, 0.012884686700999737],
      "type": "VEC2"
    },
    {
      "bufferView": 1,
      "byteOffset": 44160,
      "componentType": 5126,
      "count": 1380,
      "max": [0.9844970703125, 0.9937744140625],
      "min": [0.012884686700999737, 0.012884686700999737],
      "type": "VEC2"
    },
    {
      "bufferView": 1,
      "byteOffset": 55200,
      "componentType": 5126,
      "count": 1380,
      "max": [0.9844970703125, 0.9937744140625],
      "min": [0.012884686700999737, 0.012884686700999737],
      "type": "VEC2"
    },
    {
      "bufferView": 0,
      "byteOffset": 12300,
      "componentType": 5125,
      "count": 3075,
      "type": "SCALAR"
    },
    {
      "bufferView": 2,
      "byteOffset": 66240,
      "componentType": 5126,
      "count": 1376,
      "max": [0.016635097563266754, 0.2796124815940857, 0.22373563051223755],
      "min": [
        -0.05858226120471954, -0.037454500794410706, -0.16076306998729706
      ],
      "type": "VEC3"
    },
    {
      "bufferView": 2,
      "byteOffset": 82752,
      "componentType": 5126,
      "count": 1376,
      "max": [1.0, 1.0, 1.0],
      "min": [-1.0, -1.0, -1.0],
      "type": "VEC3"
    },
    {
      "bufferView": 3,
      "byteOffset": 44160,
      "componentType": 5126,
      "count": 1376,
      "max": [1.0, 0.9999952912330627, 1.0, 1.0],
      "min": [-1.0, -1.0, -1.0, -1.0],
      "type": "VEC4"
    },
    {
      "bufferView": 1,
      "byteOffset": 66240,
      "componentType": 5126,
      "count": 1376,
      "max": [0.9844970703125, 0.9937744140625],
      "min": [0.012884686700999737, 0.012884686700999737],
      "type": "VEC2"
    },
    {
      "bufferView": 1,
      "byteOffset": 77248,
      "componentType": 5126,
      "count": 1376,
      "max": [0.9844970703125, 0.9937744140625],
      "min": [0.012884686700999737, 0.012884686700999737],
      "type": "VEC2"
    },
    {
      "bufferView": 1,
      "byteOffset": 88256,
      "componentType": 5126,
      "count": 1376,
      "max": [0.9844970703125, 0.9937744140625],
      "min": [0.012884686700999737, 0.012884686700999737],
      "type": "VEC2"
    },
    {
      "bufferView": 0,
      "byteOffset": 24600,
      "componentType": 5125,
      "count": 3075,
      "type": "SCALAR"
    },
    {
      "bufferView": 2,
      "byteOffset": 99264,
      "componentType": 5126,
      "count": 1380,
      "max": [0.016635097563266754, 0.2796124815940857, 0.22373563051223755],
      "min": [
        -0.05858226120471954, -0.037454500794410706, -0.16076306998729706
      ],
      "type": "VEC3"
    },
    {
      "bufferView": 2,
      "byteOffset": 115824,
      "componentType": 5126,
      "count": 1380,
      "max": [1.0, 1.0, 1.0],
      "min": [-1.0, -1.0, -1.0],
      "type": "VEC3"
    },
    {
      "bufferView": 3,
      "byteOffset": 66176,
      "componentType": 5126,
      "count": 1380,
      "max": [1.0, 0.9999952912330627, 1.0, 1.0],
      "min": [-1.0, -1.0, -1.0, -1.0],
      "type": "VEC4"
    },
    {
      "bufferView": 1,
      "byteOffset": 99264,
      "componentType": 5126,
      "count": 1380,
      "max": [0.9844970703125, 0.9937744140625],
      "min": [0.012884686700999737, 0.012884686700999737],
      "type": "VEC2"
    },
    {
      "bufferView": 1,
      "byteOffset": 110304,
      "componentType": 5126,
      "count": 1380,
      "max": [0.9844970703125, 0.9937744140625],
      "min": [0.012884686700999737, 0.012884686700999737],
      "type": "VEC2"
    },
    {
      "bufferView": 1,
      "byteOffset": 121344,
      "componentType": 5126,
      "count": 1380,
      "max": [0.9844970703125, 0.9937744140625],
      "min": [0.012884686700999737, 0.012884686700999737],
      "type": "VEC2"
    },
    {
      "bufferView": 0,
      "byteOffset": 36900,
      "componentType": 5125,
      "count": 3075,
      "type": "SCALAR"
    },
    {
      "bufferView": 2,
      "byteOffset": 132384,
      "componentType": 5126,
      "count": 465,
      "max": [0.016635097563266754, 0.2796124815940857, 0.22373563051223755],
      "min": [
        -0.05858226120471954, -0.037454500794410706, -0.16076306998729706
      ],
      "type": "VEC3"
    },
    {
      "bufferView": 2,
      "byteOffset": 137964,
      "componentType": 5126,
      "count": 465,
      "max": [1.0, 1.0, 1.0],
      "min": [-1.0, -1.0, -1.0],
      "type": "VEC3"
    },
    {
      "bufferView": 3,
      "byteOffset": 88256,
      "componentType": 5126,
      "count": 465,
      "max": [0.9999690651893616, 0.9999952912330627, 1.0, 1.0],
      "min": [-0.9999146461486816, -1.0, -1.0, -1.0],
      "type": "VEC4"
    },
    {
      "bufferView": 1,
      "byteOffset": 132384,
      "componentType": 5126,
      "count": 465,
      "max": [0.8407275676727295, 0.9871153235435486],
      "min": [0.012884686700999737, 0.012884686700999737],
      "type": "VEC2"
    },
    {
      "bufferView": 1,
      "byteOffset": 136104,
      "componentType": 5126,
      "count": 465,
      "max": [0.8407275676727295, 0.9871153235435486],
      "min": [0.012884686700999737, 0.012884686700999737],
      "type": "VEC2"
    },
    {
      "bufferView": 1,
      "byteOffset": 139824,
      "componentType": 5126,
      "count": 465,
      "max": [0.8407275676727295, 0.9871153235435486],
      "min": [0.012884686700999737, 0.012884686700999737],
      "type": "VEC2"
    },
    {
      "bufferView": 0,
      "byteOffset": 49200,
      "componentType": 5125,
      "count": 1275,
      "type": "SCALAR"
    },
    {
      "bufferView": 2,
      "byteOffset": 143544,
      "componentType": 5126,
      "count": 1193,
      "max": [0.00886872410774231, 0.2586536705493927, 0.2136024832725525],
      "min": [-0.05881161615252495, 9.596372547093779e-5, -0.1607470065355301],
      "type": "VEC3"
    },
    {
      "bufferView": 2,
      "byteOffset": 157860,
      "componentType": 5126,
      "count": 1193,
      "max": [0.9989867210388184, 1.0, 0.9999800324440002],
      "min": [-0.9990366697311401, -1.0, -0.9999801516532898],
      "type": "VEC3"
    },
    {
      "bufferView": 3,
      "byteOffset": 95696,
      "componentType": 5126,
      "count": 1193,
      "max": [0.9999963045120239, 0.9998080134391785, 0.9983816146850586, 1.0],
      "min": [
        -0.9999796748161316, -0.9995826482772827, -0.9994505643844604, -1.0
      ],
      "type": "VEC4"
    },
    {
      "bufferView": 1,
      "byteOffset": 143544,
      "componentType": 5126,
      "count": 1193,
      "max": [0.9844970703125, 0.9937744140625],
      "min": [0.7542724609375, 0.0140380859375],
      "type": "VEC2"
    },
    {
      "bufferView": 1,
      "byteOffset": 153088,
      "componentType": 5126,
      "count": 1193,
      "max": [0.9844970703125, 0.9937744140625],
      "min": [0.7542724609375, 0.0140380859375],
      "type": "VEC2"
    },
    {
      "bufferView": 1,
      "byteOffset": 162632,
      "componentType": 5126,
      "count": 1193,
      "max": [0.9844970703125, 0.9937744140625],
      "min": [0.7542724609375, 0.0140380859375],
      "type": "VEC2"
    },
    {
      "bufferView": 0,
      "byteOffset": 54300,
      "componentType": 5125,
      "count": 1800,
      "type": "SCALAR"
    }
  ],
  "asset": {
    "extras": {
      "author": "janexx (https://sketchfab.com/janexx)",
      "license": "CC-BY-4.0 (http://creativecommons.org/licenses/by/4.0/)",
      "source": "https://sketchfab.com/3d-models/several-folders-1a493b49ef954985ab8057ca66c387d5",
      "title": "Several Folders"
    },
    "generator": "Sketchfab-12.67.0",
    "version": "2.0"
  },
  "bufferViews": [
    {
      "buffer": 0,
      "byteLength": 61500,
      "name": "floatBufferViews",
      "target": 34963
    },
    {
      "buffer": 0,
      "byteLength": 172176,
      "byteOffset": 61500,
      "byteStride": 8,
      "name": "floatBufferViews",
      "target": 34962
    },
    {
      "buffer": 0,
      "byteLength": 172176,
      "byteOffset": 233676,
      "byteStride": 12,
      "name": "floatBufferViews",
      "target": 34962
    },
    {
      "buffer": 0,
      "byteLength": 114784,
      "byteOffset": 405852,
      "byteStride": 16,
      "name": "floatBufferViews",
      "target": 34962
    }
  ],
  "buffers": [
    {
      "byteLength": 520636,
      "uri": "scene.bin"
    }
  ],
  "images": [
    {
      "uri": "textures/Folder_nolabel_baseColor.png"
    },
    {
      "uri": "textures/Folder_nolabel_normal.png"
    },
    {
      "uri": "textures/Folder_Bills_baseColor.png"
    },
    {
      "uri": "textures/Folder_TaxRecords_baseColor.png"
    },
    {
      "uri": "textures/Folder_House_baseColor.png"
    },
    {
      "uri": "textures/Folder_Work_baseColor.png"
    }
  ],
  "materials": [
    {
      "doubleSided": true,
      "name": "Folder_nolabel",
      "normalTexture": {
        "index": 1,
        "texCoord": 1
      },
      "pbrMetallicRoughness": {
        "baseColorTexture": {
          "index": 0
        },
        "metallicFactor": 0.0,
        "roughnessFactor": 0.8102633403898972
      }
    },
    {
      "doubleSided": true,
      "name": "Folder_Bills",
      "normalTexture": {
        "index": 1,
        "texCoord": 1
      },
      "pbrMetallicRoughness": {
        "baseColorTexture": {
          "index": 2
        },
        "metallicFactor": 0.0,
        "roughnessFactor": 0.8102633403898972
      }
    },
    {
      "doubleSided": true,
      "name": "Folder_TaxRecords",
      "normalTexture": {
        "index": 1,
        "texCoord": 1
      },
      "pbrMetallicRoughness": {
        "baseColorTexture": {
          "index": 3
        },
        "metallicFactor": 0.0,
        "roughnessFactor": 0.8102633403898972
      }
    },
    {
      "doubleSided": true,
      "name": "Folder_House",
      "normalTexture": {
        "index": 1,
        "texCoord": 1
      },
      "pbrMetallicRoughness": {
        "baseColorTexture": {
          "index": 4
        },
        "metallicFactor": 0.0,
        "roughnessFactor": 0.8102633403898972
      }
    },
    {
      "doubleSided": true,
      "name": "Folder_Work",
      "normalTexture": {
        "index": 1,
        "texCoord": 1
      },
      "pbrMetallicRoughness": {
        "baseColorTexture": {
          "index": 5
        },
        "metallicFactor": 0.0,
        "roughnessFactor": 0.8102633403898972
      }
    }
  ],
  "meshes": [
    {
      "name": "folder_LP_nolabel_Folder_nolabel_0",
      "primitives": [
        {
          "attributes": {
            "NORMAL": 1,
            "POSITION": 0,
            "TANGENT": 2,
            "TEXCOORD_0": 3,
            "TEXCOORD_1": 4,
            "TEXCOORD_2": 5
          },
          "indices": 6,
          "material": 0,
          "mode": 4
        }
      ]
    },
    {
      "name": "folder_LP_Bills_Folder_Bills_0",
      "primitives": [
        {
          "attributes": {
            "NORMAL": 8,
            "POSITION": 7,
            "TANGENT": 9,
            "TEXCOORD_0": 10,
            "TEXCOORD_1": 11,
            "TEXCOORD_2": 12
          },
          "indices": 13,
          "material": 1,
          "mode": 4
        }
      ]
    },
    {
      "name": "folder_LP_TaxRecords_Folder_TaxRecords_0",
      "primitives": [
        {
          "attributes": {
            "NORMAL": 15,
            "POSITION": 14,
            "TANGENT": 16,
            "TEXCOORD_0": 17,
            "TEXCOORD_1": 18,
            "TEXCOORD_2": 19
          },
          "indices": 20,
          "material": 2,
          "mode": 4
        }
      ]
    },
    {
      "name": "folder_LP_House_Folder_House_0",
      "primitives": [
        {
          "attributes": {
            "NORMAL": 22,
            "POSITION": 21,
            "TANGENT": 23,
            "TEXCOORD_0": 24,
            "TEXCOORD_1": 25,
            "TEXCOORD_2": 26
          },
          "indices": 27,
          "material": 3,
          "mode": 4
        }
      ]
    },
    {
      "name": "folder_LP_Work_Folder_Work_0",
      "primitives": [
        {
          "attributes": {
            "NORMAL": 29,
            "POSITION": 28,
            "TANGENT": 30,
            "TEXCOORD_0": 31,
            "TEXCOORD_1": 32,
            "TEXCOORD_2": 33
          },
          "indices": 34,
          "material": 4,
          "mode": 4
        }
      ]
    },
    {
      "name": "folder_LP_Work_Folder_nolabel_0",
      "primitives": [
        {
          "attributes": {
            "NORMAL": 36,
            "POSITION": 35,
            "TANGENT": 37,
            "TEXCOORD_0": 38,
            "TEXCOORD_1": 39,
            "TEXCOORD_2": 40
          },
          "indices": 41,
          "material": 0,
          "mode": 4
        }
      ]
    }
  ],
  "nodes": [
    {
      "children": [1],
      "matrix": [
        1.0, 0.0, 0.0, 0.0, 0.0, 2.220446049250313e-16, -1.0, 0.0, 0.0, 1.0,
        2.220446049250313e-16, 0.0, 0.0, 0.0, 0.0, 1.0
      ],
      "name": "Sketchfab_model"
    },
    {
      "children": [2],
      "matrix": [
        1.0, 0.0, 0.0, 0.0, 0.0, 0.0, 1.0, 0.0, 0.0, -1.0, 0.0, 0.0, 0.0, 0.0,
        0.0, 1.0
      ],
      "name": "Props_Folders.fbx"
    },
    {
      "children": [3, 5, 7, 9, 11],
      "name": "RootNode"
    },
    {
      "children": [4],
      "matrix": [
        100.0, 0.0, 0.0, 0.0, 0.0, -4.371139006309477e-6, -99.9999999999999,
        0.0, 0.0, 99.9999999999999, -4.371139006309477e-6, 0.0,
        409.824951171875, 16.107624053955078, 26.50493621826172, 1.0
      ],
      "name": "folder_LP_nolabel"
    },
    {
      "mesh": 0,
      "name": "folder_LP_nolabel_Folder_nolabel_0"
    },
    {
      "children": [6],
      "matrix": [
        100.0, 0.0, 0.0, 0.0, 0.0, -4.371139006309477e-6, -99.9999999999999,
        0.0, 0.0, 99.9999999999999, -4.371139006309477e-6, 0.0,
        417.3670654296875, 16.107624053955078, 26.50493621826172, 1.0
      ],
      "name": "folder_LP_Bills"
    },
    {
      "mesh": 1,
      "name": "folder_LP_Bills_Folder_Bills_0"
    },
    {
      "children": [8],
      "matrix": [
        100.0, 0.0, 0.0, 0.0, 0.0, -4.371139006309477e-6, -99.9999999999999,
        0.0, 0.0, 99.9999999999999, -4.371139006309477e-6, 0.0,
        424.9562683105469, 16.107624053955078, 26.50493621826172, 1.0
      ],
      "name": "folder_LP_TaxRecords"
    },
    {
      "mesh": 2,
      "name": "folder_LP_TaxRecords_Folder_TaxRecords_0"
    },
    {
      "children": [10],
      "matrix": [
        100.0, 0.0, 0.0, 0.0, 0.0, -4.371139006309477e-6, -99.9999999999999,
        0.0, 0.0, 99.9999999999999, -4.371139006309477e-6, 0.0,
        432.6662902832031, 16.107624053955078, 26.50493621826172, 1.0
      ],
      "name": "folder_LP_House"
    },
    {
      "mesh": 3,
      "name": "folder_LP_House_Folder_House_0"
    },
    {
      "children": [12, 13],
      "matrix": [
        98.87210010063926, 14.976909617446651, 2.1013917717027653e-6, 0.0,
        9.469649564497473e-7, 7.779359434412214e-6, -99.9999999999997, 0.0,
        -14.976909617446768, 98.87210010063897, 7.549789970973109e-6, 0.0,
        442.9657897949219, 16.58690643310547, 26.50493621826172, 1.0
      ],
      "name": "folder_LP_Work"
    },
    {
      "mesh": 4,
      "name": "folder_LP_Work_Folder_Work_0"
    },
    {
      "mesh": 5,
      "name": "folder_LP_Work_Folder_nolabel_0"
    }
  ],
  "samplers": [
    {
      "magFilter": 9729,
      "minFilter": 9987,
      "wrapS": 10497,
      "wrapT": 10497
    }
  ],
  "scene": 0,
  "scenes": [
    {
      "name": "Sketchfab_Scene",
      "nodes": [0]
    }
  ],
  "textures": [
    {
      "sampler": 0,
      "source": 0
    },
    {
      "sampler": 0,
      "source": 1
    },
    {
      "sampler": 0,
      "source": 2
    },
    {
      "sampler": 0,
      "source": 3
    },
    {
      "sampler": 0,
      "source": 4
    },
    {
      "sampler": 0,
      "source": 5
    }
  ]
}
