<svg width="34" height="40" viewBox="0 0 34 40" fill="none" xmlns="http://www.w3.org/2000/svg">
<g clip-path="url(#clip0_0_3)">
<path d="M33.2 -1.47149e-07L8.2 5C8 5.1 7.8 5.3 7.8 5.5V15.2C7.8 15.4 8 15.6 8.2 15.7L33.3 20.7C33.6 20.7 33.8 20.5 33.8 20.2V0.4C33.8 0.2 33.5 -0.1 33.2 -1.47149e-07ZM0.5 39.9L25.6 34.9C25.8 34.9 26 34.7 26 34.4V24.7C26 24.5 25.8 24.3 25.6 24.2L0.5 19.2C0.2 19.2 0 19.4 0 19.7V39.4C0 39.8 0.3 40 0.5 39.9Z" fill="black"/>
</g>
<defs>
<clipPath id="clip0_0_3">
<rect width="33.8" height="39.9" fill="white"/>
</clipPath>
</defs>
</svg>
